<svg width="183" height="80" viewBox="0 0 183 80" fill="none" xmlns="http://www.w3.org/2000/svg">
<mask id="mask0_9_16921" style="mask-type:luminance" maskUnits="userSpaceOnUse" x="89" y="44" width="76" height="22">
<path d="M164.231 44.7059H89.1538V65.8824H164.231V44.7059Z" fill="white"/>
</mask>
<g mask="url(#mask0_9_16921)">
<path d="M93.8462 44.7059H91.5V47.0588H93.8462V44.7059Z" fill="#223148"/>
<path d="M96.1923 44.7059H93.8462V47.0588H96.1923V44.7059Z" fill="#223148"/>
<path d="M103.231 44.7059H100.885V47.0588H103.231V44.7059Z" fill="#223148"/>
<path d="M105.577 44.7059H103.231V47.0588H105.577V44.7059Z" fill="#223148"/>
<path d="M107.923 44.7059H105.577V47.0588H107.923V44.7059Z" fill="#223148"/>
<path d="M110.269 44.7059H107.923V47.0588H110.269V44.7059Z" fill="#223148"/>
<path d="M112.615 44.7059H110.269V47.0588H112.615V44.7059Z" fill="#223148"/>
<path d="M117.308 44.7059H114.961V47.0588H117.308V44.7059Z" fill="#223148"/>
<path d="M119.654 44.7059H117.308V47.0588H119.654V44.7059Z" fill="#223148"/>
<path d="M122 44.7059H119.654V47.0588H122V44.7059Z" fill="#223148"/>
<path d="M124.346 44.7059H122V47.0588H124.346V44.7059Z" fill="#223148"/>
<path d="M131.384 44.7059H129.038V47.0588H131.384V44.7059Z" fill="#223148"/>
<path d="M133.731 44.7059H131.385V47.0588H133.731V44.7059Z" fill="#223148"/>
<path d="M143.115 44.7059H140.769V47.0588H143.115V44.7059Z" fill="#223148"/>
<path d="M145.461 44.7059H143.115V47.0588H145.461V44.7059Z" fill="#223148"/>
<path d="M147.808 44.7059H145.461V47.0588H147.808V44.7059Z" fill="#223148"/>
<path d="M154.846 44.7059H152.5V47.0588H154.846V44.7059Z" fill="#223148"/>
<path d="M161.884 44.7059H159.538V47.0588H161.884V44.7059Z" fill="#223148"/>
<path d="M164.231 44.7059H161.885V47.0588H164.231V44.7059Z" fill="#223148"/>
<path d="M91.5 47.0588H89.1538V49.4118H91.5V47.0588Z" fill="#223148"/>
<path d="M98.5385 47.0588H96.1924V49.4118H98.5385V47.0588Z" fill="#223148"/>
<path d="M107.923 47.0588H105.577V49.4118H107.923V47.0588Z" fill="#223148"/>
<path d="M117.308 47.0588H114.961V49.4118H117.308V47.0588Z" fill="#223148"/>
<path d="M124.346 47.0588H122V49.4118H124.346V47.0588Z" fill="#223148"/>
<path d="M129.039 47.0588H126.692V49.4118H129.039V47.0588Z" fill="#223148"/>
<path d="M136.077 47.0588H133.731V49.4118H136.077V47.0588Z" fill="#223148"/>
<path d="M143.115 47.0588H140.769V49.4118H143.115V47.0588Z" fill="#223148"/>
<path d="M147.808 47.0588H145.461V49.4118H147.808V47.0588Z" fill="#223148"/>
<path d="M154.846 47.0588H152.5V49.4118H154.846V47.0588Z" fill="#223148"/>
<path d="M161.884 47.0588H159.538V49.4118H161.884V47.0588Z" fill="#223148"/>
<path d="M91.5 49.4118H89.1538V51.7647H91.5V49.4118Z" fill="#223148"/>
<path d="M98.5385 49.4118H96.1924V51.7647H98.5385V49.4118Z" fill="#223148"/>
<path d="M107.923 49.4118H105.577V51.7647H107.923V49.4118Z" fill="#223148"/>
<path d="M117.308 49.4118H114.961V51.7647H117.308V49.4118Z" fill="#223148"/>
<path d="M124.346 49.4118H122V51.7647H124.346V49.4118Z" fill="#223148"/>
<path d="M129.039 49.4118H126.692V51.7647H129.039V49.4118Z" fill="#223148"/>
<path d="M136.077 49.4118H133.731V51.7647H136.077V49.4118Z" fill="#223148"/>
<path d="M143.115 49.4118H140.769V51.7647H143.115V49.4118Z" fill="#223148"/>
<path d="M147.808 49.4118H145.461V51.7647H147.808V49.4118Z" fill="#223148"/>
<path d="M154.846 49.4118H152.5V51.7647H154.846V49.4118Z" fill="#223148"/>
<path d="M159.539 49.4118H157.192V51.7647H159.539V49.4118Z" fill="#223148"/>
<path d="M161.884 49.4118H159.538V51.7647H161.884V49.4118Z" fill="#223148"/>
<path d="M91.5 51.7647H89.1538V54.1176H91.5V51.7647Z" fill="#223148"/>
<path d="M98.5385 51.7647H96.1924V54.1176H98.5385V51.7647Z" fill="#223148"/>
<path d="M107.923 51.7647H105.577V54.1176H107.923V51.7647Z" fill="#223148"/>
<path d="M117.308 51.7647H114.961V54.1176H117.308V51.7647Z" fill="#223148"/>
<path d="M124.346 51.7647H122V54.1176H124.346V51.7647Z" fill="#223148"/>
<path d="M129.039 51.7647H126.692V54.1176H129.039V51.7647Z" fill="#223148"/>
<path d="M136.077 51.7647H133.731V54.1176H136.077V51.7647Z" fill="#223148"/>
<path d="M143.115 51.7647H140.769V54.1176H143.115V51.7647Z" fill="#223148"/>
<path d="M147.808 51.7647H145.461V54.1176H147.808V51.7647Z" fill="#223148"/>
<path d="M154.846 51.7647H152.5V54.1176H154.846V51.7647Z" fill="#223148"/>
<path d="M157.192 51.7647H154.846V54.1176H157.192V51.7647Z" fill="#223148"/>
<path d="M159.539 51.7647H157.192V54.1176H159.539V51.7647Z" fill="#223148"/>
<path d="M91.5 54.1176H89.1538V56.4706H91.5V54.1176Z" fill="#223148"/>
<path d="M98.5385 54.1176H96.1924V56.4706H98.5385V54.1176Z" fill="#223148"/>
<path d="M107.923 54.1176H105.577V56.4706H107.923V54.1176Z" fill="#223148"/>
<path d="M117.308 54.1176H114.961V56.4706H117.308V54.1176Z" fill="#223148"/>
<path d="M124.346 54.1176H122V56.4706H124.346V54.1176Z" fill="#223148"/>
<path d="M129.039 54.1176H126.692V56.4706H129.039V54.1176Z" fill="#223148"/>
<path d="M131.384 54.1176H129.038V56.4706H131.384V54.1176Z" fill="#223148"/>
<path d="M133.731 54.1176H131.385V56.4706H133.731V54.1176Z" fill="#223148"/>
<path d="M136.077 54.1176H133.731V56.4706H136.077V54.1176Z" fill="#223148"/>
<path d="M143.115 54.1176H140.769V56.4706H143.115V54.1176Z" fill="#223148"/>
<path d="M147.808 54.1176H145.461V56.4706H147.808V54.1176Z" fill="#223148"/>
<path d="M154.846 54.1176H152.5V56.4706H154.846V54.1176Z" fill="#223148"/>
<path d="M157.192 54.1176H154.846V56.4706H157.192V54.1176Z" fill="#223148"/>
<path d="M159.539 54.1176H157.192V56.4706H159.539V54.1176Z" fill="#223148"/>
<path d="M161.884 54.1176H159.538V56.4706H161.884V54.1176Z" fill="#223148"/>
<path d="M91.5 56.4706H89.1538V58.8235H91.5V56.4706Z" fill="#223148"/>
<path d="M98.5385 56.4706H96.1924V58.8235H98.5385V56.4706Z" fill="#223148"/>
<path d="M107.923 56.4706H105.577V58.8235H107.923V56.4706Z" fill="#223148"/>
<path d="M117.308 56.4706H114.961V58.8235H117.308V56.4706Z" fill="#223148"/>
<path d="M124.346 56.4706H122V58.8235H124.346V56.4706Z" fill="#223148"/>
<path d="M129.039 56.4706H126.692V58.8235H129.039V56.4706Z" fill="#223148"/>
<path d="M136.077 56.4706H133.731V58.8235H136.077V56.4706Z" fill="#223148"/>
<path d="M143.115 56.4706H140.769V58.8235H143.115V56.4706Z" fill="#223148"/>
<path d="M147.808 56.4706H145.461V58.8235H147.808V56.4706Z" fill="#223148"/>
<path d="M154.846 56.4706H152.5V58.8235H154.846V56.4706Z" fill="#223148"/>
<path d="M161.884 56.4706H159.538V58.8235H161.884V56.4706Z" fill="#223148"/>
<path d="M91.5 58.8235H89.1538V61.1765H91.5V58.8235Z" fill="#223148"/>
<path d="M98.5385 58.8235H96.1924V61.1765H98.5385V58.8235Z" fill="#223148"/>
<path d="M107.923 58.8235H105.577V61.1765H107.923V58.8235Z" fill="#223148"/>
<path d="M117.308 58.8235H114.961V61.1765H117.308V58.8235Z" fill="#223148"/>
<path d="M124.346 58.8235H122V61.1765H124.346V58.8235Z" fill="#223148"/>
<path d="M129.039 58.8235H126.692V61.1765H129.039V58.8235Z" fill="#223148"/>
<path d="M136.077 58.8235H133.731V61.1765H136.077V58.8235Z" fill="#223148"/>
<path d="M143.115 58.8235H140.769V61.1765H143.115V58.8235Z" fill="#223148"/>
<path d="M147.808 58.8235H145.461V61.1765H147.808V58.8235Z" fill="#223148"/>
<path d="M154.846 58.8235H152.5V61.1765H154.846V58.8235Z" fill="#223148"/>
<path d="M161.884 58.8235H159.538V61.1765H161.884V58.8235Z" fill="#223148"/>
<path d="M91.5 61.1765H89.1538V63.5294H91.5V61.1765Z" fill="#223148"/>
<path d="M98.5385 61.1765H96.1924V63.5294H98.5385V61.1765Z" fill="#223148"/>
<path d="M107.923 61.1765H105.577V63.5294H107.923V61.1765Z" fill="#223148"/>
<path d="M117.308 61.1765H114.961V63.5294H117.308V61.1765Z" fill="#223148"/>
<path d="M124.346 61.1765H122V63.5294H124.346V61.1765Z" fill="#223148"/>
<path d="M129.039 61.1765H126.692V63.5294H129.039V61.1765Z" fill="#223148"/>
<path d="M136.077 61.1765H133.731V63.5294H136.077V61.1765Z" fill="#223148"/>
<path d="M140.769 61.1765H138.423V63.5294H140.769V61.1765Z" fill="#223148"/>
<path d="M143.115 61.1765H140.769V63.5294H143.115V61.1765Z" fill="#223148"/>
<path d="M145.461 61.1765H143.115V63.5294H145.461V61.1765Z" fill="#223148"/>
<path d="M147.808 61.1765H145.461V63.5294H147.808V61.1765Z" fill="#223148"/>
<path d="M150.154 61.1765H147.808V63.5294H150.154V61.1765Z" fill="#223148"/>
<path d="M154.846 61.1765H152.5V63.5294H154.846V61.1765Z" fill="#223148"/>
<path d="M161.884 61.1765H159.538V63.5294H161.884V61.1765Z" fill="#223148"/>
<path d="M164.231 61.1765H161.885V63.5294H164.231V61.1765Z" fill="#223148"/>
<path d="M93.8462 63.5294H91.5V65.8824H93.8462V63.5294Z" fill="#223148"/>
<path d="M96.1923 63.5294H93.8462V65.8824H96.1923V63.5294Z" fill="#223148"/>
<path d="M107.923 63.5294H105.577V65.8824H107.923V63.5294Z" fill="#223148"/>
<path d="M114.961 63.5294H112.615V65.8824H114.961V63.5294Z" fill="#223148"/>
<path d="M117.308 63.5294H114.961V65.8824H117.308V63.5294Z" fill="#223148"/>
<path d="M124.346 63.5294H122V65.8824H124.346V63.5294Z" fill="#223148"/>
<path d="M129.039 63.5294H126.692V65.8824H129.039V63.5294Z" fill="#223148"/>
<path d="M136.077 63.5294H133.731V65.8824H136.077V63.5294Z" fill="#223148"/>
<path d="M140.769 63.5294H138.423V65.8824H140.769V63.5294Z" fill="#223148"/>
<path d="M150.154 63.5294H147.808V65.8824H150.154V63.5294Z" fill="#223148"/>
<path d="M154.846 63.5294H152.5V65.8824H154.846V63.5294Z" fill="#223148"/>
<path d="M164.231 63.5294H161.885V65.8824H164.231V63.5294Z" fill="#223148"/>
</g>
<mask id="mask1_9_16921" style="mask-type:luminance" maskUnits="userSpaceOnUse" x="166" y="44" width="15" height="22">
<path d="M180.654 44.7059H166.577V65.8824H180.654V44.7059Z" fill="white"/>
</mask>
<g mask="url(#mask1_9_16921)">
<path d="M168.923 44.7059H166.577V47.0588H168.923V44.7059Z" fill="#223148"/>
<path d="M180.654 44.7059H178.308V47.0588H180.654V44.7059Z" fill="#223148"/>
<path d="M168.923 47.0588H166.577V49.4118H168.923V47.0588Z" fill="#223148"/>
<path d="M178.308 47.0588H175.961V49.4118H178.308V47.0588Z" fill="#223148"/>
<path d="M180.654 47.0588H178.308V49.4118H180.654V47.0588Z" fill="#223148"/>
<path d="M168.923 49.4118H166.577V51.7647H168.923V49.4118Z" fill="#223148"/>
<path d="M178.308 49.4118H175.961V51.7647H178.308V49.4118Z" fill="#223148"/>
<path d="M180.654 49.4118H178.308V51.7647H180.654V49.4118Z" fill="#223148"/>
<path d="M168.923 51.7647H166.577V54.1176H168.923V51.7647Z" fill="#223148"/>
<path d="M175.962 51.7647H173.615V54.1176H175.962V51.7647Z" fill="#223148"/>
<path d="M180.654 51.7647H178.308V54.1176H180.654V51.7647Z" fill="#223148"/>
<path d="M168.923 54.1176H166.577V56.4706H168.923V54.1176Z" fill="#223148"/>
<path d="M173.615 54.1176H171.269V56.4706H173.615V54.1176Z" fill="#223148"/>
<path d="M180.654 54.1176H178.308V56.4706H180.654V54.1176Z" fill="#223148"/>
<path d="M168.923 56.4706H166.577V58.8235H168.923V56.4706Z" fill="#223148"/>
<path d="M173.615 56.4706H171.269V58.8235H173.615V56.4706Z" fill="#223148"/>
<path d="M180.654 56.4706H178.308V58.8235H180.654V56.4706Z" fill="#223148"/>
<path d="M168.923 58.8235H166.577V61.1765H168.923V58.8235Z" fill="#223148"/>
<path d="M173.615 58.8235H171.269V61.1765H173.615V58.8235Z" fill="#223148"/>
<path d="M180.654 58.8235H178.308V61.1765H180.654V58.8235Z" fill="#223148"/>
<path d="M168.923 61.1765H166.577V63.5294H168.923V61.1765Z" fill="#223148"/>
<path d="M171.269 61.1765H168.923V63.5294H171.269V61.1765Z" fill="#223148"/>
<path d="M180.654 61.1765H178.308V63.5294H180.654V61.1765Z" fill="#223148"/>
<path d="M168.923 63.5294H166.577V65.8824H168.923V63.5294Z" fill="#223148"/>
<path d="M171.269 63.5294H168.923V65.8824H171.269V63.5294Z" fill="#223148"/>
<path d="M180.654 63.5294H178.308V65.8824H180.654V63.5294Z" fill="#223148"/>
</g>
<mask id="mask2_9_16921" style="mask-type:luminance" maskUnits="userSpaceOnUse" x="2" y="2" width="76" height="76">
<path d="M77.4231 2.35294H2.34619V77.6471H77.4231V2.35294Z" fill="white"/>
</mask>
<g mask="url(#mask2_9_16921)">
<path d="M7.03854 2.35294H4.69238V4.70588H7.03854V2.35294Z" fill="#223148"/>
<path d="M9.38473 2.35294H7.03857V4.70588H9.38473V2.35294Z" fill="#223148"/>
<path d="M11.7309 2.35294H9.38477V4.70588H11.7309V2.35294Z" fill="#223148"/>
<path d="M14.0769 2.35294H11.7307V4.70588H14.0769V2.35294Z" fill="#223148"/>
<path d="M16.4231 2.35294H14.0769V4.70588H16.4231V2.35294Z" fill="#223148"/>
<path d="M18.7692 2.35294H16.4231V4.70588H18.7692V2.35294Z" fill="#223148"/>
<path d="M21.1154 2.35294H18.7693V4.70588H21.1154V2.35294Z" fill="#223148"/>
<path d="M23.4616 2.35294H21.1155V4.70588H23.4616V2.35294Z" fill="#223148"/>
<path d="M25.8078 2.35294H23.4617V4.70588H25.8078V2.35294Z" fill="#223148"/>
<path d="M28.1538 2.35294H25.8076V4.70588H28.1538V2.35294Z" fill="#223148"/>
<path d="M30.5 2.35294H28.1538V4.70588H30.5V2.35294Z" fill="#223148"/>
<path d="M32.8462 2.35294H30.5V4.70588H32.8462V2.35294Z" fill="#223148"/>
<path d="M35.1923 2.35294H32.8462V4.70588H35.1923V2.35294Z" fill="#223148"/>
<path d="M37.5385 2.35294H35.1924V4.70588H37.5385V2.35294Z" fill="#223148"/>
<path d="M39.8847 2.35294H37.5386V4.70588H39.8847V2.35294Z" fill="#223148"/>
<path d="M42.2309 2.35294H39.8848V4.70588H42.2309V2.35294Z" fill="#223148"/>
<path d="M44.5769 2.35294H42.2307V4.70588H44.5769V2.35294Z" fill="#223148"/>
<path d="M46.9231 2.35294H44.5769V4.70588H46.9231V2.35294Z" fill="#223148"/>
<path d="M49.2692 2.35294H46.9231V4.70588H49.2692V2.35294Z" fill="#223148"/>
<path d="M51.6154 2.35294H49.2693V4.70588H51.6154V2.35294Z" fill="#223148"/>
<path d="M53.9616 2.35294H51.6155V4.70588H53.9616V2.35294Z" fill="#223148"/>
<path d="M56.3078 2.35294H53.9617V4.70588H56.3078V2.35294Z" fill="#223148"/>
<path d="M58.6538 2.35294H56.3076V4.70588H58.6538V2.35294Z" fill="#223148"/>
<path d="M61 2.35294H58.6538V4.70588H61V2.35294Z" fill="#223148"/>
<path d="M63.3462 2.35294H61V4.70588H63.3462V2.35294Z" fill="#223148"/>
<path d="M65.6923 2.35294H63.3462V4.70588H65.6923V2.35294Z" fill="#223148"/>
<path d="M68.0385 2.35294H65.6924V4.70588H68.0385V2.35294Z" fill="#223148"/>
<path d="M70.3847 2.35294H68.0386V4.70588H70.3847V2.35294Z" fill="#223148"/>
<path d="M72.7309 2.35294H70.3848V4.70588H72.7309V2.35294Z" fill="#223148"/>
<path d="M75.0769 2.35294H72.7307V4.70588H75.0769V2.35294Z" fill="#223148"/>
<path d="M4.69235 4.70588H2.34619V7.05882H4.69235V4.70588Z" fill="#223148"/>
<path d="M7.03854 4.70588H4.69238V7.05882H7.03854V4.70588Z" fill="#223148"/>
<path d="M9.38473 4.70588H7.03857V7.05882H9.38473V4.70588Z" fill="#223148"/>
<path d="M11.7309 4.70588H9.38477V7.05882H11.7309V4.70588Z" fill="#223148"/>
<path d="M14.0769 4.70588H11.7307V7.05882H14.0769V4.70588Z" fill="#223148"/>
<path d="M16.4231 4.70588H14.0769V7.05882H16.4231V4.70588Z" fill="#223148"/>
<path d="M18.7692 4.70588H16.4231V7.05882H18.7692V4.70588Z" fill="#223148"/>
<path d="M21.1154 4.70588H18.7693V7.05882H21.1154V4.70588Z" fill="#223148"/>
<path d="M23.4616 4.70588H21.1155V7.05882H23.4616V4.70588Z" fill="#223148"/>
<path d="M25.8078 4.70588H23.4617V7.05882H25.8078V4.70588Z" fill="#223148"/>
<path d="M28.1538 4.70588H25.8076V7.05882H28.1538V4.70588Z" fill="#223148"/>
<path d="M30.5 4.70588H28.1538V7.05882H30.5V4.70588Z" fill="#223148"/>
<path d="M32.8462 4.70588H30.5V7.05882H32.8462V4.70588Z" fill="#223148"/>
<path d="M35.1923 4.70588H32.8462V7.05882H35.1923V4.70588Z" fill="#223148"/>
<path d="M37.5385 4.70588H35.1924V7.05882H37.5385V4.70588Z" fill="#223148"/>
<path d="M39.8847 4.70588H37.5386V7.05882H39.8847V4.70588Z" fill="#223148"/>
<path d="M42.2309 4.70588H39.8848V7.05882H42.2309V4.70588Z" fill="#223148"/>
<path d="M44.5769 4.70588H42.2307V7.05882H44.5769V4.70588Z" fill="#223148"/>
<path d="M46.9231 4.70588H44.5769V7.05882H46.9231V4.70588Z" fill="#223148"/>
<path d="M49.2692 4.70588H46.9231V7.05882H49.2692V4.70588Z" fill="#223148"/>
<path d="M51.6154 4.70588H49.2693V7.05882H51.6154V4.70588Z" fill="#223148"/>
<path d="M53.9616 4.70588H51.6155V7.05882H53.9616V4.70588Z" fill="#223148"/>
<path d="M56.3078 4.70588H53.9617V7.05882H56.3078V4.70588Z" fill="#223148"/>
<path d="M58.6538 4.70588H56.3076V7.05882H58.6538V4.70588Z" fill="#223148"/>
<path d="M61 4.70588H58.6538V7.05882H61V4.70588Z" fill="#223148"/>
<path d="M63.3462 4.70588H61V7.05882H63.3462V4.70588Z" fill="#223148"/>
<path d="M65.6923 4.70588H63.3462V7.05882H65.6923V4.70588Z" fill="#223148"/>
<path d="M68.0385 4.70588H65.6924V7.05882H68.0385V4.70588Z" fill="#223148"/>
<path d="M70.3847 4.70588H68.0386V7.05882H70.3847V4.70588Z" fill="#223148"/>
<path d="M72.7309 4.70588H70.3848V7.05882H72.7309V4.70588Z" fill="#223148"/>
<path d="M75.0769 4.70588H72.7307V7.05882H75.0769V4.70588Z" fill="#223148"/>
<path d="M77.4231 4.70588H75.0769V7.05882H77.4231V4.70588Z" fill="#223148"/>
<path d="M4.69235 7.05882H2.34619V9.41176H4.69235V7.05882Z" fill="#223148"/>
<path d="M7.03854 7.05882H4.69238V9.41176H7.03854V7.05882Z" fill="#223148"/>
<path d="M9.38473 7.05882H7.03857V9.41176H9.38473V7.05882Z" fill="#223148"/>
<path d="M11.7309 7.05882H9.38477V9.41176H11.7309V7.05882Z" fill="#223148"/>
<path d="M68.0385 7.05882H65.6924V9.41176H68.0385V7.05882Z" fill="#223148"/>
<path d="M70.3847 7.05882H68.0386V9.41176H70.3847V7.05882Z" fill="#223148"/>
<path d="M72.7309 7.05882H70.3848V9.41176H72.7309V7.05882Z" fill="#223148"/>
<path d="M75.0769 7.05882H72.7307V9.41176H75.0769V7.05882Z" fill="#223148"/>
<path d="M77.4231 7.05882H75.0769V9.41176H77.4231V7.05882Z" fill="#223148"/>
<path d="M4.69235 9.41176H2.34619V11.7647H4.69235V9.41176Z" fill="#223148"/>
<path d="M7.03854 9.41176H4.69238V11.7647H7.03854V9.41176Z" fill="#223148"/>
<path d="M9.38473 9.41176H7.03857V11.7647H9.38473V9.41176Z" fill="#223148"/>
<path d="M11.7309 9.41176H9.38477V11.7647H11.7309V9.41176Z" fill="#7A7F84"/>
<path d="M14.0769 9.41176H11.7307V11.7647H14.0769V9.41176Z" fill="#7A7F84"/>
<path d="M68.0385 9.41176H65.6924V11.7647H68.0385V9.41176Z" fill="#7A7F84"/>
<path d="M70.3847 9.41176H68.0386V11.7647H70.3847V9.41176Z" fill="#7A7F84"/>
<path d="M72.7309 9.41176H70.3848V11.7647H72.7309V9.41176Z" fill="#223148"/>
<path d="M75.0769 9.41176H72.7307V11.7647H75.0769V9.41176Z" fill="#223148"/>
<path d="M77.4231 9.41176H75.0769V11.7647H77.4231V9.41176Z" fill="#223148"/>
<path d="M4.69235 11.7647H2.34619V14.1176H4.69235V11.7647Z" fill="#223148"/>
<path d="M7.03854 11.7647H4.69238V14.1176H7.03854V11.7647Z" fill="#223148"/>
<path d="M14.0769 11.7647H11.7307V14.1176H14.0769V11.7647Z" fill="#7A7F84"/>
<path d="M16.4231 11.7647H14.0769V14.1176H16.4231V11.7647Z" fill="#7A7F84"/>
<path d="M23.4616 11.7647H21.1155V14.1176H23.4616V11.7647Z" fill="#7A7F84"/>
<path d="M25.8078 11.7647H23.4617V14.1176H25.8078V11.7647Z" fill="#7A7F84"/>
<path d="M28.1538 11.7647H25.8076V14.1176H28.1538V11.7647Z" fill="#7A7F84"/>
<path d="M30.5 11.7647H28.1538V14.1176H30.5V11.7647Z" fill="#7A7F84"/>
<path d="M32.8462 11.7647H30.5V14.1176H32.8462V11.7647Z" fill="#7A7F84"/>
<path d="M35.1923 11.7647H32.8462V14.1176H35.1923V11.7647Z" fill="#7A7F84"/>
<path d="M37.5385 11.7647H35.1924V14.1176H37.5385V11.7647Z" fill="#7A7F84"/>
<path d="M39.8847 11.7647H37.5386V14.1176H39.8847V11.7647Z" fill="#7A7F84"/>
<path d="M42.2309 11.7647H39.8848V14.1176H42.2309V11.7647Z" fill="#7A7F84"/>
<path d="M44.5769 11.7647H42.2307V14.1176H44.5769V11.7647Z" fill="#7A7F84"/>
<path d="M46.9231 11.7647H44.5769V14.1176H46.9231V11.7647Z" fill="#7A7F84"/>
<path d="M49.2692 11.7647H46.9231V14.1176H49.2692V11.7647Z" fill="#7A7F84"/>
<path d="M51.6154 11.7647H49.2693V14.1176H51.6154V11.7647Z" fill="#7A7F84"/>
<path d="M53.9616 11.7647H51.6155V14.1176H53.9616V11.7647Z" fill="#7A7F84"/>
<path d="M56.3078 11.7647H53.9617V14.1176H56.3078V11.7647Z" fill="#7A7F84"/>
<path d="M58.6538 11.7647H56.3076V14.1176H58.6538V11.7647Z" fill="#7A7F84"/>
<path d="M61 11.7647H58.6538V14.1176H61V11.7647Z" fill="#7A7F84"/>
<path d="M65.6923 11.7647H63.3462V14.1176H65.6923V11.7647Z" fill="#7A7F84"/>
<path d="M68.0385 11.7647H65.6924V14.1176H68.0385V11.7647Z" fill="#7A7F84"/>
<path d="M75.0769 11.7647H72.7307V14.1176H75.0769V11.7647Z" fill="#223148"/>
<path d="M77.4231 11.7647H75.0769V14.1176H77.4231V11.7647Z" fill="#223148"/>
<path d="M4.69235 14.1176H2.34619V16.4706H4.69235V14.1176Z" fill="#223148"/>
<path d="M7.03854 14.1176H4.69238V16.4706H7.03854V14.1176Z" fill="#223148"/>
<path d="M16.4231 14.1176H14.0769V16.4706H16.4231V14.1176Z" fill="#7A7F84"/>
<path d="M18.7692 14.1176H16.4231V16.4706H18.7692V14.1176Z" fill="#7A7F84"/>
<path d="M21.1154 14.1176H18.7693V16.4706H21.1154V14.1176Z" fill="#7A7F84"/>
<path d="M23.4616 14.1176H21.1155V16.4706H23.4616V14.1176Z" fill="#7A7F84"/>
<path d="M25.8078 14.1176H23.4617V16.4706H25.8078V14.1176Z" fill="#7A7F84"/>
<path d="M28.1538 14.1176H25.8076V16.4706H28.1538V14.1176Z" fill="#7A7F84"/>
<path d="M30.5 14.1176H28.1538V16.4706H30.5V14.1176Z" fill="#7A7F84"/>
<path d="M32.8462 14.1176H30.5V16.4706H32.8462V14.1176Z" fill="#7A7F84"/>
<path d="M35.1923 14.1176H32.8462V16.4706H35.1923V14.1176Z" fill="#7A7F84"/>
<path d="M37.5385 14.1176H35.1924V16.4706H37.5385V14.1176Z" fill="#7A7F84"/>
<path d="M39.8847 14.1176H37.5386V16.4706H39.8847V14.1176Z" fill="#7A7F84"/>
<path d="M42.2309 14.1176H39.8848V16.4706H42.2309V14.1176Z" fill="#7A7F84"/>
<path d="M44.5769 14.1176H42.2307V16.4706H44.5769V14.1176Z" fill="#7A7F84"/>
<path d="M46.9231 14.1176H44.5769V16.4706H46.9231V14.1176Z" fill="#7A7F84"/>
<path d="M49.2692 14.1176H46.9231V16.4706H49.2692V14.1176Z" fill="#7A7F84"/>
<path d="M51.6154 14.1176H49.2693V16.4706H51.6154V14.1176Z" fill="#7A7F84"/>
<path d="M53.9616 14.1176H51.6155V16.4706H53.9616V14.1176Z" fill="#7A7F84"/>
<path d="M56.3078 14.1176H53.9617V16.4706H56.3078V14.1176Z" fill="#7A7F84"/>
<path d="M58.6538 14.1176H56.3076V16.4706H58.6538V14.1176Z" fill="#7A7F84"/>
<path d="M61 14.1176H58.6538V16.4706H61V14.1176Z" fill="#7A7F84"/>
<path d="M63.3462 14.1176H61V16.4706H63.3462V14.1176Z" fill="#7A7F84"/>
<path d="M65.6923 14.1176H63.3462V16.4706H65.6923V14.1176Z" fill="#7A7F84"/>
<path d="M75.0769 14.1176H72.7307V16.4706H75.0769V14.1176Z" fill="#223148"/>
<path d="M77.4231 14.1176H75.0769V16.4706H77.4231V14.1176Z" fill="#223148"/>
<path d="M4.69235 16.4706H2.34619V18.8235H4.69235V16.4706Z" fill="#223148"/>
<path d="M7.03854 16.4706H4.69238V18.8235H7.03854V16.4706Z" fill="#223148"/>
<path d="M18.7692 16.4706H16.4231V18.8235H18.7692V16.4706Z" fill="#7A7F84"/>
<path d="M65.6923 16.4706H63.3462V18.8235H65.6923V16.4706Z" fill="#7A7F84"/>
<path d="M75.0769 16.4706H72.7307V18.8235H75.0769V16.4706Z" fill="#223148"/>
<path d="M77.4231 16.4706H75.0769V18.8235H77.4231V16.4706Z" fill="#223148"/>
<path d="M4.69235 18.8235H2.34619V21.1765H4.69235V18.8235Z" fill="#223148"/>
<path d="M7.03854 18.8235H4.69238V21.1765H7.03854V18.8235Z" fill="#223148"/>
<path d="M16.4231 18.8235H14.0769V21.1765H16.4231V18.8235Z" fill="#7A7F84"/>
<path d="M18.7692 18.8235H16.4231V21.1765H18.7692V18.8235Z" fill="#7A7F84"/>
<path d="M65.6923 18.8235H63.3462V21.1765H65.6923V18.8235Z" fill="#7A7F84"/>
<path d="M68.0385 18.8235H65.6924V21.1765H68.0385V18.8235Z" fill="#7A7F84"/>
<path d="M75.0769 18.8235H72.7307V21.1765H75.0769V18.8235Z" fill="#223148"/>
<path d="M77.4231 18.8235H75.0769V21.1765H77.4231V18.8235Z" fill="#223148"/>
<path d="M4.69235 21.1765H2.34619V23.5294H4.69235V21.1765Z" fill="#223148"/>
<path d="M7.03854 21.1765H4.69238V23.5294H7.03854V21.1765Z" fill="#223148"/>
<path d="M16.4231 21.1765H14.0769V23.5294H16.4231V21.1765Z" fill="#7A7F84"/>
<path d="M18.7692 21.1765H16.4231V23.5294H18.7692V21.1765Z" fill="#7A7F84"/>
<path d="M25.8078 21.1765H23.4617V23.5294H25.8078V21.1765Z" fill="#223148"/>
<path d="M28.1538 21.1765H25.8076V23.5294H28.1538V21.1765Z" fill="#223148"/>
<path d="M30.5 21.1765H28.1538V23.5294H30.5V21.1765Z" fill="#223148"/>
<path d="M32.8462 21.1765H30.5V23.5294H32.8462V21.1765Z" fill="#223148"/>
<path d="M35.1923 21.1765H32.8462V23.5294H35.1923V21.1765Z" fill="#223148"/>
<path d="M37.5385 21.1765H35.1924V23.5294H37.5385V21.1765Z" fill="#223148"/>
<path d="M39.8847 21.1765H37.5386V23.5294H39.8847V21.1765Z" fill="#223148"/>
<path d="M44.5769 21.1765H42.2307V23.5294H44.5769V21.1765Z" fill="#223148"/>
<path d="M46.9231 21.1765H44.5769V23.5294H46.9231V21.1765Z" fill="#223148"/>
<path d="M49.2692 21.1765H46.9231V23.5294H49.2692V21.1765Z" fill="#223148"/>
<path d="M51.6154 21.1765H49.2693V23.5294H51.6154V21.1765Z" fill="#223148"/>
<path d="M53.9616 21.1765H51.6155V23.5294H53.9616V21.1765Z" fill="#223148"/>
<path d="M56.3078 21.1765H53.9617V23.5294H56.3078V21.1765Z" fill="#223148"/>
<path d="M58.6538 21.1765H56.3076V23.5294H58.6538V21.1765Z" fill="#223148"/>
<path d="M65.6923 21.1765H63.3462V23.5294H65.6923V21.1765Z" fill="#7A7F84"/>
<path d="M68.0385 21.1765H65.6924V23.5294H68.0385V21.1765Z" fill="#7A7F84"/>
<path d="M75.0769 21.1765H72.7307V23.5294H75.0769V21.1765Z" fill="#223148"/>
<path d="M77.4231 21.1765H75.0769V23.5294H77.4231V21.1765Z" fill="#223148"/>
<path d="M4.69235 23.5294H2.34619V25.8824H4.69235V23.5294Z" fill="#223148"/>
<path d="M7.03854 23.5294H4.69238V25.8824H7.03854V23.5294Z" fill="#223148"/>
<path d="M16.4231 23.5294H14.0769V25.8824H16.4231V23.5294Z" fill="#7A7F84"/>
<path d="M18.7692 23.5294H16.4231V25.8824H18.7692V23.5294Z" fill="#7A7F84"/>
<path d="M25.8078 23.5294H23.4617V25.8824H25.8078V23.5294Z" fill="#223148"/>
<path d="M28.1538 23.5294H25.8076V25.8824H28.1538V23.5294Z" fill="#223148"/>
<path d="M30.5 23.5294H28.1538V25.8824H30.5V23.5294Z" fill="#223148"/>
<path d="M32.8462 23.5294H30.5V25.8824H32.8462V23.5294Z" fill="#223148"/>
<path d="M35.1923 23.5294H32.8462V25.8824H35.1923V23.5294Z" fill="#223148"/>
<path d="M37.5385 23.5294H35.1924V25.8824H37.5385V23.5294Z" fill="#223148"/>
<path d="M39.8847 23.5294H37.5386V25.8824H39.8847V23.5294Z" fill="#223148"/>
<path d="M44.5769 23.5294H42.2307V25.8824H44.5769V23.5294Z" fill="#223148"/>
<path d="M46.9231 23.5294H44.5769V25.8824H46.9231V23.5294Z" fill="#223148"/>
<path d="M49.2692 23.5294H46.9231V25.8824H49.2692V23.5294Z" fill="#223148"/>
<path d="M51.6154 23.5294H49.2693V25.8824H51.6154V23.5294Z" fill="#223148"/>
<path d="M53.9616 23.5294H51.6155V25.8824H53.9616V23.5294Z" fill="#223148"/>
<path d="M56.3078 23.5294H53.9617V25.8824H56.3078V23.5294Z" fill="#223148"/>
<path d="M58.6538 23.5294H56.3076V25.8824H58.6538V23.5294Z" fill="#223148"/>
<path d="M65.6923 23.5294H63.3462V25.8824H65.6923V23.5294Z" fill="#7A7F84"/>
<path d="M68.0385 23.5294H65.6924V25.8824H68.0385V23.5294Z" fill="#7A7F84"/>
<path d="M75.0769 23.5294H72.7307V25.8824H75.0769V23.5294Z" fill="#223148"/>
<path d="M77.4231 23.5294H75.0769V25.8824H77.4231V23.5294Z" fill="#223148"/>
<path d="M4.69235 25.8824H2.34619V28.2353H4.69235V25.8824Z" fill="#223148"/>
<path d="M7.03854 25.8824H4.69238V28.2353H7.03854V25.8824Z" fill="#223148"/>
<path d="M16.4231 25.8824H14.0769V28.2353H16.4231V25.8824Z" fill="#7A7F84"/>
<path d="M18.7692 25.8824H16.4231V28.2353H18.7692V25.8824Z" fill="#7A7F84"/>
<path d="M25.8078 25.8824H23.4617V28.2353H25.8078V25.8824Z" fill="#223148"/>
<path d="M28.1538 25.8824H25.8076V28.2353H28.1538V25.8824Z" fill="#223148"/>
<path d="M44.5769 25.8824H42.2307V28.2353H44.5769V25.8824Z" fill="#223148"/>
<path d="M46.9231 25.8824H44.5769V28.2353H46.9231V25.8824Z" fill="#223148"/>
<path d="M65.6923 25.8824H63.3462V28.2353H65.6923V25.8824Z" fill="#7A7F84"/>
<path d="M68.0385 25.8824H65.6924V28.2353H68.0385V25.8824Z" fill="#7A7F84"/>
<path d="M75.0769 25.8824H72.7307V28.2353H75.0769V25.8824Z" fill="#223148"/>
<path d="M77.4231 25.8824H75.0769V28.2353H77.4231V25.8824Z" fill="#223148"/>
<path d="M4.69235 28.2353H2.34619V30.5882H4.69235V28.2353Z" fill="#223148"/>
<path d="M7.03854 28.2353H4.69238V30.5882H7.03854V28.2353Z" fill="#223148"/>
<path d="M16.4231 28.2353H14.0769V30.5882H16.4231V28.2353Z" fill="#7A7F84"/>
<path d="M18.7692 28.2353H16.4231V30.5882H18.7692V28.2353Z" fill="#7A7F84"/>
<path d="M25.8078 28.2353H23.4617V30.5882H25.8078V28.2353Z" fill="#223148"/>
<path d="M28.1538 28.2353H25.8076V30.5882H28.1538V28.2353Z" fill="#223148"/>
<path d="M44.5769 28.2353H42.2307V30.5882H44.5769V28.2353Z" fill="#223148"/>
<path d="M46.9231 28.2353H44.5769V30.5882H46.9231V28.2353Z" fill="#223148"/>
<path d="M65.6923 28.2353H63.3462V30.5882H65.6923V28.2353Z" fill="#7A7F84"/>
<path d="M68.0385 28.2353H65.6924V30.5882H68.0385V28.2353Z" fill="#7A7F84"/>
<path d="M75.0769 28.2353H72.7307V30.5882H75.0769V28.2353Z" fill="#223148"/>
<path d="M77.4231 28.2353H75.0769V30.5882H77.4231V28.2353Z" fill="#223148"/>
<path d="M4.69235 30.5882H2.34619V32.9412H4.69235V30.5882Z" fill="#223148"/>
<path d="M7.03854 30.5882H4.69238V32.9412H7.03854V30.5882Z" fill="#223148"/>
<path d="M16.4231 30.5882H14.0769V32.9412H16.4231V30.5882Z" fill="#7A7F84"/>
<path d="M18.7692 30.5882H16.4231V32.9412H18.7692V30.5882Z" fill="#7A7F84"/>
<path d="M25.8078 30.5882H23.4617V32.9412H25.8078V30.5882Z" fill="#223148"/>
<path d="M28.1538 30.5882H25.8076V32.9412H28.1538V30.5882Z" fill="#223148"/>
<path d="M44.5769 30.5882H42.2307V32.9412H44.5769V30.5882Z" fill="#223148"/>
<path d="M46.9231 30.5882H44.5769V32.9412H46.9231V30.5882Z" fill="#223148"/>
<path d="M65.6923 30.5882H63.3462V32.9412H65.6923V30.5882Z" fill="#7A7F84"/>
<path d="M68.0385 30.5882H65.6924V32.9412H68.0385V30.5882Z" fill="#7A7F84"/>
<path d="M75.0769 30.5882H72.7307V32.9412H75.0769V30.5882Z" fill="#223148"/>
<path d="M77.4231 30.5882H75.0769V32.9412H77.4231V30.5882Z" fill="#223148"/>
<path d="M4.69235 32.9412H2.34619V35.2941H4.69235V32.9412Z" fill="#223148"/>
<path d="M7.03854 32.9412H4.69238V35.2941H7.03854V32.9412Z" fill="#223148"/>
<path d="M16.4231 32.9412H14.0769V35.2941H16.4231V32.9412Z" fill="#7A7F84"/>
<path d="M18.7692 32.9412H16.4231V35.2941H18.7692V32.9412Z" fill="#7A7F84"/>
<path d="M25.8078 32.9412H23.4617V35.2941H25.8078V32.9412Z" fill="#223148"/>
<path d="M28.1538 32.9412H25.8076V35.2941H28.1538V32.9412Z" fill="#223148"/>
<path d="M30.5 32.9412H28.1538V35.2941H30.5V32.9412Z" fill="#223148"/>
<path d="M32.8462 32.9412H30.5V35.2941H32.8462V32.9412Z" fill="#223148"/>
<path d="M35.1923 32.9412H32.8462V35.2941H35.1923V32.9412Z" fill="#223148"/>
<path d="M37.5385 32.9412H35.1924V35.2941H37.5385V32.9412Z" fill="#223148"/>
<path d="M39.8847 32.9412H37.5386V35.2941H39.8847V32.9412Z" fill="#223148"/>
<path d="M44.5769 32.9412H42.2307V35.2941H44.5769V32.9412Z" fill="#223148"/>
<path d="M46.9231 32.9412H44.5769V35.2941H46.9231V32.9412Z" fill="#223148"/>
<path d="M65.6923 32.9412H63.3462V35.2941H65.6923V32.9412Z" fill="#7A7F84"/>
<path d="M68.0385 32.9412H65.6924V35.2941H68.0385V32.9412Z" fill="#7A7F84"/>
<path d="M75.0769 32.9412H72.7307V35.2941H75.0769V32.9412Z" fill="#223148"/>
<path d="M77.4231 32.9412H75.0769V35.2941H77.4231V32.9412Z" fill="#223148"/>
<path d="M4.69235 35.2941H2.34619V37.6471H4.69235V35.2941Z" fill="#223148"/>
<path d="M7.03854 35.2941H4.69238V37.6471H7.03854V35.2941Z" fill="#223148"/>
<path d="M16.4231 35.2941H14.0769V37.6471H16.4231V35.2941Z" fill="#7A7F84"/>
<path d="M18.7692 35.2941H16.4231V37.6471H18.7692V35.2941Z" fill="#7A7F84"/>
<path d="M25.8078 35.2941H23.4617V37.6471H25.8078V35.2941Z" fill="#223148"/>
<path d="M28.1538 35.2941H25.8076V37.6471H28.1538V35.2941Z" fill="#223148"/>
<path d="M30.5 35.2941H28.1538V37.6471H30.5V35.2941Z" fill="#223148"/>
<path d="M32.8462 35.2941H30.5V37.6471H32.8462V35.2941Z" fill="#223148"/>
<path d="M35.1923 35.2941H32.8462V37.6471H35.1923V35.2941Z" fill="#223148"/>
<path d="M37.5385 35.2941H35.1924V37.6471H37.5385V35.2941Z" fill="#223148"/>
<path d="M39.8847 35.2941H37.5386V37.6471H39.8847V35.2941Z" fill="#223148"/>
<path d="M44.5769 35.2941H42.2307V37.6471H44.5769V35.2941Z" fill="#223148"/>
<path d="M46.9231 35.2941H44.5769V37.6471H46.9231V35.2941Z" fill="#223148"/>
<path d="M65.6923 35.2941H63.3462V37.6471H65.6923V35.2941Z" fill="#7A7F84"/>
<path d="M68.0385 35.2941H65.6924V37.6471H68.0385V35.2941Z" fill="#7A7F84"/>
<path d="M75.0769 35.2941H72.7307V37.6471H75.0769V35.2941Z" fill="#223148"/>
<path d="M77.4231 35.2941H75.0769V37.6471H77.4231V35.2941Z" fill="#223148"/>
<path d="M4.69235 37.6471H2.34619V40H4.69235V37.6471Z" fill="#223148"/>
<path d="M7.03854 37.6471H4.69238V40H7.03854V37.6471Z" fill="#223148"/>
<path d="M16.4231 37.6471H14.0769V40H16.4231V37.6471Z" fill="#7A7F84"/>
<path d="M18.7692 37.6471H16.4231V40H18.7692V37.6471Z" fill="#7A7F84"/>
<path d="M25.8078 37.6471H23.4617V40H25.8078V37.6471Z" fill="#223148"/>
<path d="M28.1538 37.6471H25.8076V40H28.1538V37.6471Z" fill="#223148"/>
<path d="M44.5769 37.6471H42.2307V40H44.5769V37.6471Z" fill="#223148"/>
<path d="M46.9231 37.6471H44.5769V40H46.9231V37.6471Z" fill="#223148"/>
<path d="M49.2692 37.6471H46.9231V40H49.2692V37.6471Z" fill="#223148"/>
<path d="M51.6154 37.6471H49.2693V40H51.6154V37.6471Z" fill="#223148"/>
<path d="M53.9616 37.6471H51.6155V40H53.9616V37.6471Z" fill="#223148"/>
<path d="M56.3078 37.6471H53.9617V40H56.3078V37.6471Z" fill="#223148"/>
<path d="M58.6538 37.6471H56.3076V40H58.6538V37.6471Z" fill="#223148"/>
<path d="M65.6923 37.6471H63.3462V40H65.6923V37.6471Z" fill="#7A7F84"/>
<path d="M68.0385 37.6471H65.6924V40H68.0385V37.6471Z" fill="#7A7F84"/>
<path d="M75.0769 37.6471H72.7307V40H75.0769V37.6471Z" fill="#223148"/>
<path d="M77.4231 37.6471H75.0769V40H77.4231V37.6471Z" fill="#223148"/>
<path d="M4.69235 40H2.34619V42.3529H4.69235V40Z" fill="#223148"/>
<path d="M7.03854 40H4.69238V42.3529H7.03854V40Z" fill="#223148"/>
<path d="M16.4231 40H14.0769V42.3529H16.4231V40Z" fill="#7A7F84"/>
<path d="M18.7692 40H16.4231V42.3529H18.7692V40Z" fill="#7A7F84"/>
<path d="M25.8078 40H23.4617V42.3529H25.8078V40Z" fill="#223148"/>
<path d="M28.1538 40H25.8076V42.3529H28.1538V40Z" fill="#223148"/>
<path d="M44.5769 40H42.2307V42.3529H44.5769V40Z" fill="#223148"/>
<path d="M46.9231 40H44.5769V42.3529H46.9231V40Z" fill="#223148"/>
<path d="M49.2692 40H46.9231V42.3529H49.2692V40Z" fill="#223148"/>
<path d="M51.6154 40H49.2693V42.3529H51.6154V40Z" fill="#223148"/>
<path d="M53.9616 40H51.6155V42.3529H53.9616V40Z" fill="#223148"/>
<path d="M56.3078 40H53.9617V42.3529H56.3078V40Z" fill="#223148"/>
<path d="M58.6538 40H56.3076V42.3529H58.6538V40Z" fill="#223148"/>
<path d="M65.6923 40H63.3462V42.3529H65.6923V40Z" fill="#7A7F84"/>
<path d="M68.0385 40H65.6924V42.3529H68.0385V40Z" fill="#7A7F84"/>
<path d="M75.0769 40H72.7307V42.3529H75.0769V40Z" fill="#223148"/>
<path d="M77.4231 40H75.0769V42.3529H77.4231V40Z" fill="#223148"/>
<path d="M4.69235 42.3529H2.34619V44.7059H4.69235V42.3529Z" fill="#223148"/>
<path d="M7.03854 42.3529H4.69238V44.7059H7.03854V42.3529Z" fill="#223148"/>
<path d="M16.4231 42.3529H14.0769V44.7059H16.4231V42.3529Z" fill="#7A7F84"/>
<path d="M18.7692 42.3529H16.4231V44.7059H18.7692V42.3529Z" fill="#7A7F84"/>
<path d="M25.8078 42.3529H23.4617V44.7059H25.8078V42.3529Z" fill="#223148"/>
<path d="M28.1538 42.3529H25.8076V44.7059H28.1538V42.3529Z" fill="#223148"/>
<path d="M56.3078 42.3529H53.9617V44.7059H56.3078V42.3529Z" fill="#223148"/>
<path d="M58.6538 42.3529H56.3076V44.7059H58.6538V42.3529Z" fill="#223148"/>
<path d="M65.6923 42.3529H63.3462V44.7059H65.6923V42.3529Z" fill="#7A7F84"/>
<path d="M68.0385 42.3529H65.6924V44.7059H68.0385V42.3529Z" fill="#7A7F84"/>
<path d="M75.0769 42.3529H72.7307V44.7059H75.0769V42.3529Z" fill="#223148"/>
<path d="M77.4231 42.3529H75.0769V44.7059H77.4231V42.3529Z" fill="#223148"/>
<path d="M4.69235 44.7059H2.34619V47.0588H4.69235V44.7059Z" fill="#223148"/>
<path d="M7.03854 44.7059H4.69238V47.0588H7.03854V44.7059Z" fill="#223148"/>
<path d="M16.4231 44.7059H14.0769V47.0588H16.4231V44.7059Z" fill="#7A7F84"/>
<path d="M18.7692 44.7059H16.4231V47.0588H18.7692V44.7059Z" fill="#7A7F84"/>
<path d="M25.8078 44.7059H23.4617V47.0588H25.8078V44.7059Z" fill="#223148"/>
<path d="M28.1538 44.7059H25.8076V47.0588H28.1538V44.7059Z" fill="#223148"/>
<path d="M56.3078 44.7059H53.9617V47.0588H56.3078V44.7059Z" fill="#223148"/>
<path d="M58.6538 44.7059H56.3076V47.0588H58.6538V44.7059Z" fill="#223148"/>
<path d="M65.6923 44.7059H63.3462V47.0588H65.6923V44.7059Z" fill="#7A7F84"/>
<path d="M68.0385 44.7059H65.6924V47.0588H68.0385V44.7059Z" fill="#7A7F84"/>
<path d="M75.0769 44.7059H72.7307V47.0588H75.0769V44.7059Z" fill="#223148"/>
<path d="M77.4231 44.7059H75.0769V47.0588H77.4231V44.7059Z" fill="#223148"/>
<path d="M4.69235 47.0588H2.34619V49.4118H4.69235V47.0588Z" fill="#223148"/>
<path d="M7.03854 47.0588H4.69238V49.4118H7.03854V47.0588Z" fill="#223148"/>
<path d="M16.4231 47.0588H14.0769V49.4118H16.4231V47.0588Z" fill="#7A7F84"/>
<path d="M18.7692 47.0588H16.4231V49.4118H18.7692V47.0588Z" fill="#7A7F84"/>
<path d="M25.8078 47.0588H23.4617V49.4118H25.8078V47.0588Z" fill="#223148"/>
<path d="M28.1538 47.0588H25.8076V49.4118H28.1538V47.0588Z" fill="#223148"/>
<path d="M56.3078 47.0588H53.9617V49.4118H56.3078V47.0588Z" fill="#223148"/>
<path d="M58.6538 47.0588H56.3076V49.4118H58.6538V47.0588Z" fill="#223148"/>
<path d="M65.6923 47.0588H63.3462V49.4118H65.6923V47.0588Z" fill="#7A7F84"/>
<path d="M68.0385 47.0588H65.6924V49.4118H68.0385V47.0588Z" fill="#7A7F84"/>
<path d="M75.0769 47.0588H72.7307V49.4118H75.0769V47.0588Z" fill="#223148"/>
<path d="M77.4231 47.0588H75.0769V49.4118H77.4231V47.0588Z" fill="#223148"/>
<path d="M4.69235 49.4118H2.34619V51.7647H4.69235V49.4118Z" fill="#223148"/>
<path d="M7.03854 49.4118H4.69238V51.7647H7.03854V49.4118Z" fill="#223148"/>
<path d="M16.4231 49.4118H14.0769V51.7647H16.4231V49.4118Z" fill="#7A7F84"/>
<path d="M18.7692 49.4118H16.4231V51.7647H18.7692V49.4118Z" fill="#7A7F84"/>
<path d="M25.8078 49.4118H23.4617V51.7647H25.8078V49.4118Z" fill="#223148"/>
<path d="M28.1538 49.4118H25.8076V51.7647H28.1538V49.4118Z" fill="#223148"/>
<path d="M56.3078 49.4118H53.9617V51.7647H56.3078V49.4118Z" fill="#223148"/>
<path d="M58.6538 49.4118H56.3076V51.7647H58.6538V49.4118Z" fill="#223148"/>
<path d="M65.6923 49.4118H63.3462V51.7647H65.6923V49.4118Z" fill="#7A7F84"/>
<path d="M68.0385 49.4118H65.6924V51.7647H68.0385V49.4118Z" fill="#7A7F84"/>
<path d="M75.0769 49.4118H72.7307V51.7647H75.0769V49.4118Z" fill="#223148"/>
<path d="M77.4231 49.4118H75.0769V51.7647H77.4231V49.4118Z" fill="#223148"/>
<path d="M4.69235 51.7647H2.34619V54.1176H4.69235V51.7647Z" fill="#223148"/>
<path d="M7.03854 51.7647H4.69238V54.1176H7.03854V51.7647Z" fill="#223148"/>
<path d="M16.4231 51.7647H14.0769V54.1176H16.4231V51.7647Z" fill="#7A7F84"/>
<path d="M18.7692 51.7647H16.4231V54.1176H18.7692V51.7647Z" fill="#7A7F84"/>
<path d="M25.8078 51.7647H23.4617V54.1176H25.8078V51.7647Z" fill="#223148"/>
<path d="M28.1538 51.7647H25.8076V54.1176H28.1538V51.7647Z" fill="#223148"/>
<path d="M56.3078 51.7647H53.9617V54.1176H56.3078V51.7647Z" fill="#223148"/>
<path d="M58.6538 51.7647H56.3076V54.1176H58.6538V51.7647Z" fill="#223148"/>
<path d="M65.6923 51.7647H63.3462V54.1176H65.6923V51.7647Z" fill="#7A7F84"/>
<path d="M68.0385 51.7647H65.6924V54.1176H68.0385V51.7647Z" fill="#7A7F84"/>
<path d="M75.0769 51.7647H72.7307V54.1176H75.0769V51.7647Z" fill="#223148"/>
<path d="M77.4231 51.7647H75.0769V54.1176H77.4231V51.7647Z" fill="#223148"/>
<path d="M4.69235 54.1176H2.34619V56.4706H4.69235V54.1176Z" fill="#223148"/>
<path d="M7.03854 54.1176H4.69238V56.4706H7.03854V54.1176Z" fill="#223148"/>
<path d="M16.4231 54.1176H14.0769V56.4706H16.4231V54.1176Z" fill="#7A7F84"/>
<path d="M18.7692 54.1176H16.4231V56.4706H18.7692V54.1176Z" fill="#7A7F84"/>
<path d="M25.8078 54.1176H23.4617V56.4706H25.8078V54.1176Z" fill="#223148"/>
<path d="M28.1538 54.1176H25.8076V56.4706H28.1538V54.1176Z" fill="#223148"/>
<path d="M44.5769 54.1176H42.2307V56.4706H44.5769V54.1176Z" fill="#223148"/>
<path d="M46.9231 54.1176H44.5769V56.4706H46.9231V54.1176Z" fill="#223148"/>
<path d="M49.2692 54.1176H46.9231V56.4706H49.2692V54.1176Z" fill="#223148"/>
<path d="M51.6154 54.1176H49.2693V56.4706H51.6154V54.1176Z" fill="#223148"/>
<path d="M53.9616 54.1176H51.6155V56.4706H53.9616V54.1176Z" fill="#223148"/>
<path d="M56.3078 54.1176H53.9617V56.4706H56.3078V54.1176Z" fill="#223148"/>
<path d="M58.6538 54.1176H56.3076V56.4706H58.6538V54.1176Z" fill="#223148"/>
<path d="M65.6923 54.1176H63.3462V56.4706H65.6923V54.1176Z" fill="#7A7F84"/>
<path d="M68.0385 54.1176H65.6924V56.4706H68.0385V54.1176Z" fill="#7A7F84"/>
<path d="M75.0769 54.1176H72.7307V56.4706H75.0769V54.1176Z" fill="#223148"/>
<path d="M77.4231 54.1176H75.0769V56.4706H77.4231V54.1176Z" fill="#223148"/>
<path d="M4.69235 56.4706H2.34619V58.8235H4.69235V56.4706Z" fill="#223148"/>
<path d="M7.03854 56.4706H4.69238V58.8235H7.03854V56.4706Z" fill="#223148"/>
<path d="M16.4231 56.4706H14.0769V58.8235H16.4231V56.4706Z" fill="#7A7F84"/>
<path d="M18.7692 56.4706H16.4231V58.8235H18.7692V56.4706Z" fill="#7A7F84"/>
<path d="M25.8078 56.4706H23.4617V58.8235H25.8078V56.4706Z" fill="#223148"/>
<path d="M28.1538 56.4706H25.8076V58.8235H28.1538V56.4706Z" fill="#223148"/>
<path d="M44.5769 56.4706H42.2307V58.8235H44.5769V56.4706Z" fill="#223148"/>
<path d="M46.9231 56.4706H44.5769V58.8235H46.9231V56.4706Z" fill="#223148"/>
<path d="M49.2692 56.4706H46.9231V58.8235H49.2692V56.4706Z" fill="#223148"/>
<path d="M51.6154 56.4706H49.2693V58.8235H51.6154V56.4706Z" fill="#223148"/>
<path d="M53.9616 56.4706H51.6155V58.8235H53.9616V56.4706Z" fill="#223148"/>
<path d="M56.3078 56.4706H53.9617V58.8235H56.3078V56.4706Z" fill="#223148"/>
<path d="M58.6538 56.4706H56.3076V58.8235H58.6538V56.4706Z" fill="#223148"/>
<path d="M65.6923 56.4706H63.3462V58.8235H65.6923V56.4706Z" fill="#7A7F84"/>
<path d="M68.0385 56.4706H65.6924V58.8235H68.0385V56.4706Z" fill="#7A7F84"/>
<path d="M75.0769 56.4706H72.7307V58.8235H75.0769V56.4706Z" fill="#223148"/>
<path d="M77.4231 56.4706H75.0769V58.8235H77.4231V56.4706Z" fill="#223148"/>
<path d="M4.69235 58.8235H2.34619V61.1765H4.69235V58.8235Z" fill="#223148"/>
<path d="M7.03854 58.8235H4.69238V61.1765H7.03854V58.8235Z" fill="#223148"/>
<path d="M16.4231 58.8235H14.0769V61.1765H16.4231V58.8235Z" fill="#7A7F84"/>
<path d="M18.7692 58.8235H16.4231V61.1765H18.7692V58.8235Z" fill="#7A7F84"/>
<path d="M65.6923 58.8235H63.3462V61.1765H65.6923V58.8235Z" fill="#7A7F84"/>
<path d="M68.0385 58.8235H65.6924V61.1765H68.0385V58.8235Z" fill="#7A7F84"/>
<path d="M75.0769 58.8235H72.7307V61.1765H75.0769V58.8235Z" fill="#223148"/>
<path d="M77.4231 58.8235H75.0769V61.1765H77.4231V58.8235Z" fill="#223148"/>
<path d="M4.69235 61.1765H2.34619V63.5294H4.69235V61.1765Z" fill="#223148"/>
<path d="M7.03854 61.1765H4.69238V63.5294H7.03854V61.1765Z" fill="#223148"/>
<path d="M18.7692 61.1765H16.4231V63.5294H18.7692V61.1765Z" fill="#7A7F84"/>
<path d="M65.6923 61.1765H63.3462V63.5294H65.6923V61.1765Z" fill="#7A7F84"/>
<path d="M68.0385 61.1765H65.6924V63.5294H68.0385V61.1765Z" fill="#7A7F84"/>
<path d="M75.0769 61.1765H72.7307V63.5294H75.0769V61.1765Z" fill="#223148"/>
<path d="M77.4231 61.1765H75.0769V63.5294H77.4231V61.1765Z" fill="#223148"/>
<path d="M4.69235 63.5294H2.34619V65.8824H4.69235V63.5294Z" fill="#223148"/>
<path d="M7.03854 63.5294H4.69238V65.8824H7.03854V63.5294Z" fill="#223148"/>
<path d="M18.7692 63.5294H16.4231V65.8824H18.7692V63.5294Z" fill="#7A7F84"/>
<path d="M21.1154 63.5294H18.7693V65.8824H21.1154V63.5294Z" fill="#7A7F84"/>
<path d="M23.4616 63.5294H21.1155V65.8824H23.4616V63.5294Z" fill="#7A7F84"/>
<path d="M25.8078 63.5294H23.4617V65.8824H25.8078V63.5294Z" fill="#7A7F84"/>
<path d="M28.1538 63.5294H25.8076V65.8824H28.1538V63.5294Z" fill="#7A7F84"/>
<path d="M30.5 63.5294H28.1538V65.8824H30.5V63.5294Z" fill="#7A7F84"/>
<path d="M32.8462 63.5294H30.5V65.8824H32.8462V63.5294Z" fill="#7A7F84"/>
<path d="M35.1923 63.5294H32.8462V65.8824H35.1923V63.5294Z" fill="#7A7F84"/>
<path d="M37.5385 63.5294H35.1924V65.8824H37.5385V63.5294Z" fill="#7A7F84"/>
<path d="M39.8847 63.5294H37.5386V65.8824H39.8847V63.5294Z" fill="#7A7F84"/>
<path d="M42.2309 63.5294H39.8848V65.8824H42.2309V63.5294Z" fill="#7A7F84"/>
<path d="M44.5769 63.5294H42.2307V65.8824H44.5769V63.5294Z" fill="#7A7F84"/>
<path d="M46.9231 63.5294H44.5769V65.8824H46.9231V63.5294Z" fill="#7A7F84"/>
<path d="M49.2692 63.5294H46.9231V65.8824H49.2692V63.5294Z" fill="#7A7F84"/>
<path d="M51.6154 63.5294H49.2693V65.8824H51.6154V63.5294Z" fill="#7A7F84"/>
<path d="M53.9616 63.5294H51.6155V65.8824H53.9616V63.5294Z" fill="#7A7F84"/>
<path d="M56.3078 63.5294H53.9617V65.8824H56.3078V63.5294Z" fill="#7A7F84"/>
<path d="M58.6538 63.5294H56.3076V65.8824H58.6538V63.5294Z" fill="#7A7F84"/>
<path d="M61 63.5294H58.6538V65.8824H61V63.5294Z" fill="#7A7F84"/>
<path d="M63.3462 63.5294H61V65.8824H63.3462V63.5294Z" fill="#7A7F84"/>
<path d="M65.6923 63.5294H63.3462V65.8824H65.6923V63.5294Z" fill="#7A7F84"/>
<path d="M75.0769 63.5294H72.7307V65.8824H75.0769V63.5294Z" fill="#223148"/>
<path d="M77.4231 63.5294H75.0769V65.8824H77.4231V63.5294Z" fill="#223148"/>
<path d="M4.69235 65.8824H2.34619V68.2353H4.69235V65.8824Z" fill="#223148"/>
<path d="M7.03854 65.8824H4.69238V68.2353H7.03854V65.8824Z" fill="#223148"/>
<path d="M16.4231 65.8824H14.0769V68.2353H16.4231V65.8824Z" fill="#7A7F84"/>
<path d="M18.7692 65.8824H16.4231V68.2353H18.7692V65.8824Z" fill="#7A7F84"/>
<path d="M23.4616 65.8824H21.1155V68.2353H23.4616V65.8824Z" fill="#7A7F84"/>
<path d="M25.8078 65.8824H23.4617V68.2353H25.8078V65.8824Z" fill="#7A7F84"/>
<path d="M28.1538 65.8824H25.8076V68.2353H28.1538V65.8824Z" fill="#7A7F84"/>
<path d="M30.5 65.8824H28.1538V68.2353H30.5V65.8824Z" fill="#7A7F84"/>
<path d="M32.8462 65.8824H30.5V68.2353H32.8462V65.8824Z" fill="#7A7F84"/>
<path d="M35.1923 65.8824H32.8462V68.2353H35.1923V65.8824Z" fill="#7A7F84"/>
<path d="M37.5385 65.8824H35.1924V68.2353H37.5385V65.8824Z" fill="#7A7F84"/>
<path d="M39.8847 65.8824H37.5386V68.2353H39.8847V65.8824Z" fill="#7A7F84"/>
<path d="M42.2309 65.8824H39.8848V68.2353H42.2309V65.8824Z" fill="#7A7F84"/>
<path d="M44.5769 65.8824H42.2307V68.2353H44.5769V65.8824Z" fill="#7A7F84"/>
<path d="M46.9231 65.8824H44.5769V68.2353H46.9231V65.8824Z" fill="#7A7F84"/>
<path d="M49.2692 65.8824H46.9231V68.2353H49.2692V65.8824Z" fill="#7A7F84"/>
<path d="M51.6154 65.8824H49.2693V68.2353H51.6154V65.8824Z" fill="#7A7F84"/>
<path d="M53.9616 65.8824H51.6155V68.2353H53.9616V65.8824Z" fill="#7A7F84"/>
<path d="M56.3078 65.8824H53.9617V68.2353H56.3078V65.8824Z" fill="#7A7F84"/>
<path d="M58.6538 65.8824H56.3076V68.2353H58.6538V65.8824Z" fill="#7A7F84"/>
<path d="M61 65.8824H58.6538V68.2353H61V65.8824Z" fill="#7A7F84"/>
<path d="M65.6923 65.8824H63.3462V68.2353H65.6923V65.8824Z" fill="#7A7F84"/>
<path d="M68.0385 65.8824H65.6924V68.2353H68.0385V65.8824Z" fill="#7A7F84"/>
<path d="M75.0769 65.8824H72.7307V68.2353H75.0769V65.8824Z" fill="#223148"/>
<path d="M77.4231 65.8824H75.0769V68.2353H77.4231V65.8824Z" fill="#223148"/>
<path d="M4.69235 68.2353H2.34619V70.5882H4.69235V68.2353Z" fill="#223148"/>
<path d="M7.03854 68.2353H4.69238V70.5882H7.03854V68.2353Z" fill="#223148"/>
<path d="M14.0769 68.2353H11.7307V70.5882H14.0769V68.2353Z" fill="#7A7F84"/>
<path d="M16.4231 68.2353H14.0769V70.5882H16.4231V68.2353Z" fill="#7A7F84"/>
<path d="M68.0385 68.2353H65.6924V70.5882H68.0385V68.2353Z" fill="#7A7F84"/>
<path d="M70.3847 68.2353H68.0386V70.5882H70.3847V68.2353Z" fill="#7A7F84"/>
<path d="M75.0769 68.2353H72.7307V70.5882H75.0769V68.2353Z" fill="#223148"/>
<path d="M77.4231 68.2353H75.0769V70.5882H77.4231V68.2353Z" fill="#223148"/>
<path d="M4.69235 70.5882H2.34619V72.9412H4.69235V70.5882Z" fill="#223148"/>
<path d="M7.03854 70.5882H4.69238V72.9412H7.03854V70.5882Z" fill="#223148"/>
<path d="M9.38473 70.5882H7.03857V72.9412H9.38473V70.5882Z" fill="#223148"/>
<path d="M11.7309 70.5882H9.38477V72.9412H11.7309V70.5882Z" fill="#223148"/>
<path d="M72.7309 70.5882H70.3848V72.9412H72.7309V70.5882Z" fill="#223148"/>
<path d="M75.0769 70.5882H72.7307V72.9412H75.0769V70.5882Z" fill="#223148"/>
<path d="M77.4231 70.5882H75.0769V72.9412H77.4231V70.5882Z" fill="#223148"/>
<path d="M4.69235 72.9412H2.34619V75.2941H4.69235V72.9412Z" fill="#223148"/>
<path d="M7.03854 72.9412H4.69238V75.2941H7.03854V72.9412Z" fill="#223148"/>
<path d="M9.38473 72.9412H7.03857V75.2941H9.38473V72.9412Z" fill="#223148"/>
<path d="M11.7309 72.9412H9.38477V75.2941H11.7309V72.9412Z" fill="#223148"/>
<path d="M14.0769 72.9412H11.7307V75.2941H14.0769V72.9412Z" fill="#223148"/>
<path d="M16.4231 72.9412H14.0769V75.2941H16.4231V72.9412Z" fill="#223148"/>
<path d="M18.7692 72.9412H16.4231V75.2941H18.7692V72.9412Z" fill="#223148"/>
<path d="M21.1154 72.9412H18.7693V75.2941H21.1154V72.9412Z" fill="#223148"/>
<path d="M23.4616 72.9412H21.1155V75.2941H23.4616V72.9412Z" fill="#223148"/>
<path d="M25.8078 72.9412H23.4617V75.2941H25.8078V72.9412Z" fill="#223148"/>
<path d="M28.1538 72.9412H25.8076V75.2941H28.1538V72.9412Z" fill="#223148"/>
<path d="M30.5 72.9412H28.1538V75.2941H30.5V72.9412Z" fill="#223148"/>
<path d="M32.8462 72.9412H30.5V75.2941H32.8462V72.9412Z" fill="#223148"/>
<path d="M35.1923 72.9412H32.8462V75.2941H35.1923V72.9412Z" fill="#223148"/>
<path d="M37.5385 72.9412H35.1924V75.2941H37.5385V72.9412Z" fill="#223148"/>
<path d="M39.8847 72.9412H37.5386V75.2941H39.8847V72.9412Z" fill="#223148"/>
<path d="M42.2309 72.9412H39.8848V75.2941H42.2309V72.9412Z" fill="#223148"/>
<path d="M44.5769 72.9412H42.2307V75.2941H44.5769V72.9412Z" fill="#223148"/>
<path d="M46.9231 72.9412H44.5769V75.2941H46.9231V72.9412Z" fill="#223148"/>
<path d="M49.2692 72.9412H46.9231V75.2941H49.2692V72.9412Z" fill="#223148"/>
<path d="M51.6154 72.9412H49.2693V75.2941H51.6154V72.9412Z" fill="#223148"/>
<path d="M53.9616 72.9412H51.6155V75.2941H53.9616V72.9412Z" fill="#223148"/>
<path d="M56.3078 72.9412H53.9617V75.2941H56.3078V72.9412Z" fill="#223148"/>
<path d="M58.6538 72.9412H56.3076V75.2941H58.6538V72.9412Z" fill="#223148"/>
<path d="M61 72.9412H58.6538V75.2941H61V72.9412Z" fill="#223148"/>
<path d="M63.3462 72.9412H61V75.2941H63.3462V72.9412Z" fill="#223148"/>
<path d="M65.6923 72.9412H63.3462V75.2941H65.6923V72.9412Z" fill="#223148"/>
<path d="M68.0385 72.9412H65.6924V75.2941H68.0385V72.9412Z" fill="#223148"/>
<path d="M70.3847 72.9412H68.0386V75.2941H70.3847V72.9412Z" fill="#223148"/>
<path d="M72.7309 72.9412H70.3848V75.2941H72.7309V72.9412Z" fill="#223148"/>
<path d="M75.0769 72.9412H72.7307V75.2941H75.0769V72.9412Z" fill="#223148"/>
<path d="M77.4231 72.9412H75.0769V75.2941H77.4231V72.9412Z" fill="#223148"/>
<path d="M7.03854 75.2941H4.69238V77.6471H7.03854V75.2941Z" fill="#223148"/>
<path d="M9.38473 75.2941H7.03857V77.6471H9.38473V75.2941Z" fill="#223148"/>
<path d="M11.7309 75.2941H9.38477V77.6471H11.7309V75.2941Z" fill="#223148"/>
<path d="M14.0769 75.2941H11.7307V77.6471H14.0769V75.2941Z" fill="#223148"/>
<path d="M16.4231 75.2941H14.0769V77.6471H16.4231V75.2941Z" fill="#223148"/>
<path d="M18.7692 75.2941H16.4231V77.6471H18.7692V75.2941Z" fill="#223148"/>
<path d="M21.1154 75.2941H18.7693V77.6471H21.1154V75.2941Z" fill="#223148"/>
<path d="M23.4616 75.2941H21.1155V77.6471H23.4616V75.2941Z" fill="#223148"/>
<path d="M25.8078 75.2941H23.4617V77.6471H25.8078V75.2941Z" fill="#223148"/>
<path d="M28.1538 75.2941H25.8076V77.6471H28.1538V75.2941Z" fill="#223148"/>
<path d="M30.5 75.2941H28.1538V77.6471H30.5V75.2941Z" fill="#223148"/>
<path d="M32.8462 75.2941H30.5V77.6471H32.8462V75.2941Z" fill="#223148"/>
<path d="M35.1923 75.2941H32.8462V77.6471H35.1923V75.2941Z" fill="#223148"/>
<path d="M37.5385 75.2941H35.1924V77.6471H37.5385V75.2941Z" fill="#223148"/>
<path d="M39.8847 75.2941H37.5386V77.6471H39.8847V75.2941Z" fill="#223148"/>
<path d="M42.2309 75.2941H39.8848V77.6471H42.2309V75.2941Z" fill="#223148"/>
<path d="M44.5769 75.2941H42.2307V77.6471H44.5769V75.2941Z" fill="#223148"/>
<path d="M46.9231 75.2941H44.5769V77.6471H46.9231V75.2941Z" fill="#223148"/>
<path d="M49.2692 75.2941H46.9231V77.6471H49.2692V75.2941Z" fill="#223148"/>
<path d="M51.6154 75.2941H49.2693V77.6471H51.6154V75.2941Z" fill="#223148"/>
<path d="M53.9616 75.2941H51.6155V77.6471H53.9616V75.2941Z" fill="#223148"/>
<path d="M56.3078 75.2941H53.9617V77.6471H56.3078V75.2941Z" fill="#223148"/>
<path d="M58.6538 75.2941H56.3076V77.6471H58.6538V75.2941Z" fill="#223148"/>
<path d="M61 75.2941H58.6538V77.6471H61V75.2941Z" fill="#223148"/>
<path d="M63.3462 75.2941H61V77.6471H63.3462V75.2941Z" fill="#223148"/>
<path d="M65.6923 75.2941H63.3462V77.6471H65.6923V75.2941Z" fill="#223148"/>
<path d="M68.0385 75.2941H65.6924V77.6471H68.0385V75.2941Z" fill="#223148"/>
<path d="M70.3847 75.2941H68.0386V77.6471H70.3847V75.2941Z" fill="#223148"/>
<path d="M72.7309 75.2941H70.3848V77.6471H72.7309V75.2941Z" fill="#223148"/>
<path d="M75.0769 75.2941H72.7307V77.6471H75.0769V75.2941Z" fill="#223148"/>
</g>
<mask id="mask3_9_16921" style="mask-type:luminance" maskUnits="userSpaceOnUse" x="98" y="14" width="74" height="22">
<path d="M171.269 14.1176H98.5386V35.2941H171.269V14.1176Z" fill="white"/>
</mask>
<g mask="url(#mask3_9_16921)">
<path d="M100.885 14.1176H98.5386V16.4706H100.885V14.1176Z" fill="#273148"/>
<path d="M110.269 14.1176H107.923V16.4706H110.269V14.1176Z" fill="#273148"/>
<path d="M114.962 14.1176H112.615V16.4706H114.962V14.1176Z" fill="#273148"/>
<path d="M122 14.1176H119.654V16.4706H122V14.1176Z" fill="#273148"/>
<path d="M129.039 14.1176H126.692V16.4706H129.039V14.1176Z" fill="#273148"/>
<path d="M131.385 14.1176H129.039V16.4706H131.385V14.1176Z" fill="#273148"/>
<path d="M138.423 14.1176H136.077V16.4706H138.423V14.1176Z" fill="#273148"/>
<path d="M140.769 14.1176H138.423V16.4706H140.769V14.1176Z" fill="#273148"/>
<path d="M143.115 14.1176H140.769V16.4706H143.115V14.1176Z" fill="#273148"/>
<path d="M145.462 14.1176H143.115V16.4706H145.462V14.1176Z" fill="#273148"/>
<path d="M150.154 14.1176H147.808V16.4706H150.154V14.1176Z" fill="#273148"/>
<path d="M157.192 14.1176H154.846V16.4706H157.192V14.1176Z" fill="#273148"/>
<path d="M159.539 14.1176H157.192V16.4706H159.539V14.1176Z" fill="#273148"/>
<path d="M166.577 14.1176H164.231V16.4706H166.577V14.1176Z" fill="#273148"/>
<path d="M168.923 14.1176H166.577V16.4706H168.923V14.1176Z" fill="#273148"/>
<path d="M100.885 16.4706H98.5386V18.8235H100.885V16.4706Z" fill="#273148"/>
<path d="M107.923 16.4706H105.577V18.8235H107.923V16.4706Z" fill="#273148"/>
<path d="M110.269 16.4706H107.923V18.8235H110.269V16.4706Z" fill="#273148"/>
<path d="M114.962 16.4706H112.615V18.8235H114.962V16.4706Z" fill="#273148"/>
<path d="M122 16.4706H119.654V18.8235H122V16.4706Z" fill="#273148"/>
<path d="M126.692 16.4706H124.346V18.8235H126.692V16.4706Z" fill="#273148"/>
<path d="M133.731 16.4706H131.385V18.8235H133.731V16.4706Z" fill="#273148"/>
<path d="M138.423 16.4706H136.077V18.8235H138.423V16.4706Z" fill="#273148"/>
<path d="M145.462 16.4706H143.115V18.8235H145.462V16.4706Z" fill="#273148"/>
<path d="M150.154 16.4706H147.808V18.8235H150.154V16.4706Z" fill="#273148"/>
<path d="M157.192 16.4706H154.846V18.8235H157.192V16.4706Z" fill="#273148"/>
<path d="M164.231 16.4706H161.885V18.8235H164.231V16.4706Z" fill="#273148"/>
<path d="M171.269 16.4706H168.923V18.8235H171.269V16.4706Z" fill="#273148"/>
<path d="M100.885 18.8235H98.5386V21.1765H100.885V18.8235Z" fill="#273148"/>
<path d="M105.577 18.8235H103.231V21.1765H105.577V18.8235Z" fill="#273148"/>
<path d="M107.923 18.8235H105.577V21.1765H107.923V18.8235Z" fill="#273148"/>
<path d="M114.962 18.8235H112.615V21.1765H114.962V18.8235Z" fill="#273148"/>
<path d="M122 18.8235H119.654V21.1765H122V18.8235Z" fill="#273148"/>
<path d="M126.692 18.8235H124.346V21.1765H126.692V18.8235Z" fill="#273148"/>
<path d="M133.731 18.8235H131.385V21.1765H133.731V18.8235Z" fill="#273148"/>
<path d="M138.423 18.8235H136.077V21.1765H138.423V18.8235Z" fill="#273148"/>
<path d="M145.462 18.8235H143.115V21.1765H145.462V18.8235Z" fill="#273148"/>
<path d="M150.154 18.8235H147.808V21.1765H150.154V18.8235Z" fill="#273148"/>
<path d="M154.846 18.8235H152.5V21.1765H154.846V18.8235Z" fill="#273148"/>
<path d="M157.192 18.8235H154.846V21.1765H157.192V18.8235Z" fill="#273148"/>
<path d="M164.231 18.8235H161.885V21.1765H164.231V18.8235Z" fill="#273148"/>
<path d="M171.269 18.8235H168.923V21.1765H171.269V18.8235Z" fill="#273148"/>
<path d="M100.885 21.1765H98.5386V23.5294H100.885V21.1765Z" fill="#273148"/>
<path d="M105.577 21.1765H103.231V23.5294H105.577V21.1765Z" fill="#273148"/>
<path d="M114.962 21.1765H112.615V23.5294H114.962V21.1765Z" fill="#273148"/>
<path d="M122 21.1765H119.654V23.5294H122V21.1765Z" fill="#273148"/>
<path d="M126.692 21.1765H124.346V23.5294H126.692V21.1765Z" fill="#273148"/>
<path d="M133.731 21.1765H131.385V23.5294H133.731V21.1765Z" fill="#273148"/>
<path d="M138.423 21.1765H136.077V23.5294H138.423V21.1765Z" fill="#273148"/>
<path d="M145.462 21.1765H143.115V23.5294H145.462V21.1765Z" fill="#273148"/>
<path d="M150.154 21.1765H147.808V23.5294H150.154V21.1765Z" fill="#273148"/>
<path d="M154.846 21.1765H152.5V23.5294H154.846V21.1765Z" fill="#273148"/>
<path d="M164.231 21.1765H161.885V23.5294H164.231V21.1765Z" fill="#273148"/>
<path d="M171.269 21.1765H168.923V23.5294H171.269V21.1765Z" fill="#273148"/>
<path d="M100.885 23.5294H98.5386V25.8824H100.885V23.5294Z" fill="#273148"/>
<path d="M103.231 23.5294H100.885V25.8824H103.231V23.5294Z" fill="#273148"/>
<path d="M105.577 23.5294H103.231V25.8824H105.577V23.5294Z" fill="#273148"/>
<path d="M107.923 23.5294H105.577V25.8824H107.923V23.5294Z" fill="#273148"/>
<path d="M114.962 23.5294H112.615V25.8824H114.962V23.5294Z" fill="#273148"/>
<path d="M117.308 23.5294H114.962V25.8824H117.308V23.5294Z" fill="#273148"/>
<path d="M119.654 23.5294H117.308V25.8824H119.654V23.5294Z" fill="#273148"/>
<path d="M122 23.5294H119.654V25.8824H122V23.5294Z" fill="#273148"/>
<path d="M126.692 23.5294H124.346V25.8824H126.692V23.5294Z" fill="#273148"/>
<path d="M133.731 23.5294H131.385V25.8824H133.731V23.5294Z" fill="#273148"/>
<path d="M138.423 23.5294H136.077V25.8824H138.423V23.5294Z" fill="#273148"/>
<path d="M145.462 23.5294H143.115V25.8824H145.462V23.5294Z" fill="#273148"/>
<path d="M150.154 23.5294H147.808V25.8824H150.154V23.5294Z" fill="#273148"/>
<path d="M152.5 23.5294H150.154V25.8824H152.5V23.5294Z" fill="#273148"/>
<path d="M164.231 23.5294H161.885V25.8824H164.231V23.5294Z" fill="#273148"/>
<path d="M166.577 23.5294H164.231V25.8824H166.577V23.5294Z" fill="#273148"/>
<path d="M168.923 23.5294H166.577V25.8824H168.923V23.5294Z" fill="#273148"/>
<path d="M171.269 23.5294H168.923V25.8824H171.269V23.5294Z" fill="#273148"/>
<path d="M100.885 25.8824H98.5386V28.2353H100.885V25.8824Z" fill="#273148"/>
<path d="M107.923 25.8824H105.577V28.2353H107.923V25.8824Z" fill="#273148"/>
<path d="M114.962 25.8824H112.615V28.2353H114.962V25.8824Z" fill="#273148"/>
<path d="M122 25.8824H119.654V28.2353H122V25.8824Z" fill="#273148"/>
<path d="M126.692 25.8824H124.346V28.2353H126.692V25.8824Z" fill="#273148"/>
<path d="M133.731 25.8824H131.385V28.2353H133.731V25.8824Z" fill="#273148"/>
<path d="M138.423 25.8824H136.077V28.2353H138.423V25.8824Z" fill="#273148"/>
<path d="M145.462 25.8824H143.115V28.2353H145.462V25.8824Z" fill="#273148"/>
<path d="M150.154 25.8824H147.808V28.2353H150.154V25.8824Z" fill="#273148"/>
<path d="M152.5 25.8824H150.154V28.2353H152.5V25.8824Z" fill="#273148"/>
<path d="M154.846 25.8824H152.5V28.2353H154.846V25.8824Z" fill="#273148"/>
<path d="M157.192 25.8824H154.846V28.2353H157.192V25.8824Z" fill="#273148"/>
<path d="M164.231 25.8824H161.885V28.2353H164.231V25.8824Z" fill="#273148"/>
<path d="M171.269 25.8824H168.923V28.2353H171.269V25.8824Z" fill="#273148"/>
<path d="M100.885 28.2353H98.5386V30.5882H100.885V28.2353Z" fill="#273148"/>
<path d="M107.923 28.2353H105.577V30.5882H107.923V28.2353Z" fill="#273148"/>
<path d="M114.962 28.2353H112.615V30.5882H114.962V28.2353Z" fill="#273148"/>
<path d="M122 28.2353H119.654V30.5882H122V28.2353Z" fill="#273148"/>
<path d="M126.692 28.2353H124.346V30.5882H126.692V28.2353Z" fill="#273148"/>
<path d="M133.731 28.2353H131.385V30.5882H133.731V28.2353Z" fill="#273148"/>
<path d="M138.423 28.2353H136.077V30.5882H138.423V28.2353Z" fill="#273148"/>
<path d="M145.462 28.2353H143.115V30.5882H145.462V28.2353Z" fill="#273148"/>
<path d="M150.154 28.2353H147.808V30.5882H150.154V28.2353Z" fill="#273148"/>
<path d="M157.192 28.2353H154.846V30.5882H157.192V28.2353Z" fill="#273148"/>
<path d="M164.231 28.2353H161.885V30.5882H164.231V28.2353Z" fill="#273148"/>
<path d="M171.269 28.2353H168.923V30.5882H171.269V28.2353Z" fill="#273148"/>
<path d="M100.885 30.5882H98.5386V32.9412H100.885V30.5882Z" fill="#273148"/>
<path d="M107.923 30.5882H105.577V32.9412H107.923V30.5882Z" fill="#273148"/>
<path d="M114.962 30.5882H112.615V32.9412H114.962V30.5882Z" fill="#273148"/>
<path d="M122 30.5882H119.654V32.9412H122V30.5882Z" fill="#273148"/>
<path d="M126.692 30.5882H124.346V32.9412H126.692V30.5882Z" fill="#273148"/>
<path d="M133.731 30.5882H131.385V32.9412H133.731V30.5882Z" fill="#273148"/>
<path d="M138.423 30.5882H136.077V32.9412H138.423V30.5882Z" fill="#273148"/>
<path d="M145.462 30.5882H143.115V32.9412H145.462V30.5882Z" fill="#273148"/>
<path d="M150.154 30.5882H147.808V32.9412H150.154V30.5882Z" fill="#273148"/>
<path d="M157.192 30.5882H154.846V32.9412H157.192V30.5882Z" fill="#273148"/>
<path d="M164.231 30.5882H161.885V32.9412H164.231V30.5882Z" fill="#273148"/>
<path d="M171.269 30.5882H168.923V32.9412H171.269V30.5882Z" fill="#273148"/>
<path d="M100.885 32.9412H98.5386V35.2941H100.885V32.9412Z" fill="#273148"/>
<path d="M107.923 32.9412H105.577V35.2941H107.923V32.9412Z" fill="#273148"/>
<path d="M110.269 32.9412H107.923V35.2941H110.269V32.9412Z" fill="#273148"/>
<path d="M114.962 32.9412H112.615V35.2941H114.962V32.9412Z" fill="#273148"/>
<path d="M122 32.9412H119.654V35.2941H122V32.9412Z" fill="#273148"/>
<path d="M129.039 32.9412H126.692V35.2941H129.039V32.9412Z" fill="#273148"/>
<path d="M131.385 32.9412H129.039V35.2941H131.385V32.9412Z" fill="#273148"/>
<path d="M138.423 32.9412H136.077V35.2941H138.423V32.9412Z" fill="#273148"/>
<path d="M145.462 32.9412H143.115V35.2941H145.462V32.9412Z" fill="#273148"/>
<path d="M150.154 32.9412H147.808V35.2941H150.154V32.9412Z" fill="#273148"/>
<path d="M157.192 32.9412H154.846V35.2941H157.192V32.9412Z" fill="#273148"/>
<path d="M159.539 32.9412H157.192V35.2941H159.539V32.9412Z" fill="#273148"/>
<path d="M164.231 32.9412H161.885V35.2941H164.231V32.9412Z" fill="#273148"/>
<path d="M171.269 32.9412H168.923V35.2941H171.269V32.9412Z" fill="#273148"/>
</g>
</svg>
